# xmcd
#
# Track frame offsets: 
#        150
#        13735
#        27181
#        45854
#        60185
#        76444
#        91156
#        107311
#        119295
#        134074
#        148240
#        166922
#
# Disc length: 2437 seconds
#
# Revision: 0
# Processed by: cddbd v1.5.2PL0 Copyright (c) Steve Scherf et al.
# Submitted via: ExactAudioCopy v0.99pb4
#
DISCID=8f09830c
DTITLE=Common Strings - Somewhere In Glory
DYEAR=2010
DGENRE=Bluegrass
TTITLE0=When the Redeemed Are Gathering In
TTITLE1=Glorious Power
TTITLE2=Hardhat for a Halo
TTITLE3=Somewhere In Glory
TTITLE4=Nothing But the Blood
TTITLE5=Beyond the Mist of Blue
TTITLE6=Twilight is Fading
TTITLE7=The Message of His Coming
TTITLE8=Prettiest Flower
TTITLE9=Golden Streets of Home
TTITLE10=Paul's Ministry
TTITLE11=The Revelation
EXTD=
EXTT0=
EXTT1=
EXTT2=
EXTT3=
EXTT4=
EXTT5=
EXTT6=
EXTT7=
EXTT8=
EXTT9=
EXTT10=
EXTT11=
PLAYORDER=
